<svg xmlns="http://www.w3.org/2000/svg" viewBox="0 0 3001 336.29"><defs><style>.cls-1{fill:#97cfef;}.cls-2{fill:#cae4ef;}.cls-3{fill:#0c3e68;stroke:#000;}.cls-19,.cls-3,.cls-8{stroke-miterlimit:10;}.cls-4,.cls-8{fill:#93c512;}.cls-5{fill:#5e7b23;}.cls-6{fill:#7f9d35;}.cls-7{fill:#627720;}.cls-8{stroke:#556033;}.cls-9{fill:#7dd0f4;}.cls-10{fill:#28aaf0;}.cls-11{fill:#d3e7ef;}.cls-12{fill:#2e6160;}.cls-13{fill:#dba53a;}.cls-14{fill:#0c0c0c;}.cls-15{fill:#000d0e;}.cls-16{fill:#19b6ba;}.cls-17{fill:#149393;}.cls-18{fill:#3eafaf;}.cls-19{fill:none;stroke:#fff;}.cls-20{fill:#4c5b63;}.cls-21{fill:#057c7f;}.cls-22{fill:#019bdb;}.cls-23{fill:#fff;}</style></defs><g id="Capa_4" data-name="Capa 4"><path class="cls-1" d="M.5,296.77l68.36-48.68,60.64-43.26L144.66,226s31.46-37.73,51.74-63.31L229.77,214l90.42-16.63,46.13,46.48,135.49-94.77v42.47L573,125.21s79.39-30.69,96.53-29,34.76,17,26,23.87l-8.8,6.82s53.06,22.17,64.43,22.17S792.77,161,792.77,161l106.12,82.84L952,292.08l102.34-79.58,72-66.83-34.11,88.48L1312,62.12l178.14,145.27s41.69-44.67,45.48-73.66l75.8,99.62s30.32-16.48,58.75-7.32l51.16,4.89s-5.68-4.91,11.37-7.14,72,17.21,72,17.21l98.54-6.34s13.26-25.22,51.16-27.26,79.6-11.81,79.6-11.81l64.43-28.6S2197,127.77,2252,135.44c0,0,94.78-21.32,120.35-14.5,0,0,93.65-29.83,143-8.52s108.76,46.89,108.76,46.89,29.65-11.08,41,9.38c0,0,5.68,10.46,51.16,28.68l144,30L2979.65,253l20.85,53.61L1351.81,332.38.5,335.79Z"/></g><g id="Capa_5" data-name="Capa 5"><path class="cls-2" d="M.5,202.7l70.86-34.91,54,24.2,23.14,16.87L223,167.79,308.59,184l55.73,43.49,131.32-49,58.58-16.43,59.71,1.57,111.33,54.91,81.53-61.72,46.28-19.17,23.14-26.85,15.43,31.81,36-63.69,20.57,88.87,43.72,10.7L1040.79,214l115.71-45.8s72-27,87.43-11.36l97.71,5.24s69.43-44.27,90-46L1552.5,98.34l36,16,56.57,23.28h43.72l87.42-16.56,131.15-36.54,87.43-14.92s59.14-17.72,74.57-8.28l97.71-30.49h51.43l15.43-20L2285.36,0s73.52,43.56,74,50.82,44.23-7.26,44.23-7.26l44.09,32.51,29,34.73,113-26.25,72.7-62.77s103.8-14.52,119.23,12.71l28.29,68.59,48.86,7.72,84.85,4.54,41.15,33.23,15.71,8.25v179L.5,328.53V202.7"/></g><g id="Capa_6" data-name="Capa 6"><path class="cls-2" d="M1904.91,55.09s-7.62,3.73-1.27,8.13c0,0-8.9,6.81,8.17,6.7,0,0,4.73,5.94,15.62,0,0,0,10,1.65,13.44-1.43,0,0,9.8-1.75,2.36-7.25,0,0,10.53-9.45-10-10.33,0,0-1.09-5.72-11.8-3.08,0,0-12.89-4.06-17.43,1.65C1904,49.48,1898.2,50.91,1904.91,55.09Z"/><path class="cls-2" d="M1922.19,72.56s1.07,11.39,0,12.89c0,0-2.31,7.59-4.18,8.15s11.3-2.12,11.3-2.12-3.48-3.68-2.83-6.36l.42-12.56"/></g><g id="Capa_3" data-name="Capa 3"><rect class="cls-3" x="0.5" y="254.67" width="3000" height="81.12"/></g><g id="Capa_15" data-name="Capa 15"><path class="cls-4" d="M2537.13,173.9s13.81-8.46,22.17,1.31c0,0,12.2,5.2,2.24,24.74l-2.89,5.47s11.25-2.41,17.35,11c0,0,1.29-10.1,18.63-4.19,0,0,13.82-.6,25.06,11.78,0,0,10.92,5.86,9,31.58,0,0,9-11.72,13.82-12.37,0,0,9-4.89,15.1-.65,0,0,8.35,1.63,12.2,9.11,0,0-1.92-18.23-7.71-23.44,0,0,6.43,0,13.17,10.75,0,0,9.32-46.24-50.75-112,0,0,36.62,16,70.35,104.2s0,1.63,0,1.63,25.38-61.87,37.91-69.19c0,0-15.1,24.58-25.38,92.31,0,0,3.85-10.42,15.74-2.61,0,0,4.5,3.26,2.25,11.07,0,0,6.1-3.25,9.32-1.3,0,0,12.84,7.49,0,17.58,0,0-3.86,13.35-52.37,8.15L2501.58,270Z"/><path class="cls-5" d="M2631.58,259.06s15.9-6.36,28.43,9.43c0,0,11.44-10.09,22.91,2.28h0l-5.82,4.72-23,3.08-22.48-19.51"/><path class="cls-6" d="M2681.69,269.83s6.42,4.66,8.67,8.74c0,0,5.14-19.68-4.33-39.54,0,0,13,11.72,13.33,26.7,0,0,2.25-14.66-1.93-23.45l5.46,13.65s-9.64-25.37,18.31-69c0,0-20.56,48.19-15.1,67.4l1,3.12s2.57-8.33,8.67-7a10.82,10.82,0,0,1,10.6,10.42v3.34s5.46-5.25,10.82-.86c0,0,8.42,6.31,0,18.36,0,0-8.57,8.47-26.72,8.47H2669.8Z"/><path class="cls-6" d="M2548.32,172.47s24.5,4.41,4.18,34.36l-2.57,1.63s10.28-2.71,17.34,3.2,0,1.36,0,1.36,4,1,6,10.11c0,0,3.32-9.46,11.67-9.78,0,0,14.14-.85,19.92,2.5a34.84,34.84,0,0,1,15.44,11.5s6,6.41,6.64,9.72c0,0,2.65-5.49,1,18l-4.18,12.38-91.23-3.86-7.39-49.87,5.78-37.12s4.91-6,9.36-5.09Z"/><path class="cls-5" d="M2539.43,173.08s18.63,21.22-2.89,74.27c0,0,6.27.16,7.71,4.52,0,0,3.53-7.75,14.46-4.52,0,0,3.85-24.78,23.45-25.11,0,0,15.42-2.93,24.73,7.49,0,0,6.11,4.62,8.68,17.62v17.74l10.6-7.49v17.72L2612,278.57l-70.48-10-19.79-4.95v-29l11.57-57.31A13.57,13.57,0,0,1,2539.43,173.08Z"/><path class="cls-4" d="M2610.69,275.68s9-18.24,19.6-16.61c0,0,15.1-.59,19.28,6.06a16.87,16.87,0,0,1,4.49,10.55s7.07-9.55,13.17-8.36c0,0,10.28.22,11.89,4.77,0,0,1,7.82,0,12.38,0,0,.32,11.07-16.71,15.95,0,0-2,6.72-41.48,2.38l-16.66-8.56Z"/><path class="cls-7" d="M2610.37,282s31.49,16.6,39.84,8.14c0,0,16.7,5.21,26,0,0,0,5.46,8.67-10.92,12.47,0,0-36.65,9.43-54.94-2.38L2604,287.86l6.42-5.85"/><path class="cls-4" d="M2540.77,263.28s7.07-12.69,13.81-11.39a9.09,9.09,0,0,1,10.6,4.23v-15s6.11-15.3,15.42-15.95c0,0,14.46-4.89,22.49,3.25a21.72,21.72,0,0,1,8.35,15.07v29.87s18,4.56,7.71,19.21c0,0,3.22,7.37-7.06,10.2,0,0-40.8,5.43-60.72,2.5s-1.6-1-1.6-1-11.57-4.23-13.18-8.46l-14.13-1.31s-6.75-.32-5.46-11.39c0,0,1.18-6.52,10.71-8.79Z"/><path class="cls-6" d="M2536.32,275.9s-2.08,10.15,12,14.15c0,0,15.18,3.88,25.6-5.76a20.13,20.13,0,0,0,14.24,5.76s13.63-1.14,16.06-6.69a9,9,0,0,1,10.6-1.35h0l11.3,5.85s-3.59,11.61-8.09,14.76a119.73,119.73,0,0,1-28.91,4.46s-33.41,2.28-37.26,0c0,0-12.44-2.93-15.7-9.44,0,0-7.86,1.62-11,.32,0,0-11.83-1.82-11.83-7.91,0,0-1.61-7.09,4.17-11.48l16.39-8.74,2.4,6.07"/><path class="cls-4" d="M2384.52,286.89s-25.84,1.63-26.16-12.37c0,0,.95-10.75,9.25-9.44,0,0-9.89-44-4.15-54.38,0,0,8-34.84,25.21-42.66,0,0,26.48-9.77,49.77,13,0,0,21.37,17.58,27.75,34.51,0,0-3.19-22.79,22.65-11.07l4.79,3.26s-8.61-43.31,0-62.85c0,0,8.93-20.84,26.16-8.14,0,0,12.76,4.89,20.42,39.73,0,0,4.78,40.05-7.34,60.89,0,0-3.51,12-5.42,13,0,0,12.43-2.48,15.9,7a14.17,14.17,0,0,1,.69,2.75s3.51,17.26-16.59,17.26l-54.88.65-15,12.7-2.87-10.1s-17.23,15.63-24.89,16.61c0,0,1-4.56-6.06-8.14,0,0-7.34,4.23-7.34,11.07a19.28,19.28,0,0,0-11.16-5.86l-39.88,1Z"/><path class="cls-4" d="M2385.83,169a18.38,18.38,0,0,1,13.49-5.3h0l11.32,5.3-3.37,6.34Z"/><path class="cls-6" d="M2395.34,164.82s47.87,15.6,60.21,61.83h0s17.44-2.31,21.12,1.78c0,0,9.28-15.33,18-19.92,0,0-25.84-19.08-30,3.91,0,0-30.81-54-69.4-48.36Z"/><path class="cls-5" d="M2448.25,228.63s22.91-7.88,31.4,9.05c0,0,7-42.53,49.88-29.14,0,0-33.62-22.44-51.72,17.33,0,0-12.75-2.31-16.21.42C2461.6,226.29,2448.76,226.61,2448.25,228.63Z"/><path class="cls-5" d="M2359.93,269.83s-5.68,10.5,5.79,15.11c0,0,12,4.44,17.81,2.38h0l17.53.54,1-8.23s-38,3.75-42.14-9.8"/><path class="cls-6" d="M2363.46,210.7s-6,5.1,4.15,54.38c0,0-6.61-2-8.65,6.55,0,0,.41,4.62,4.32,4.3,0,0,30.35,8.59,38.33,3.81,0,0,.92-15.86-8.72-20.09,0,0-9.64,0-9.32,7.49C2383.57,267.14,2365.19,255.85,2363.46,210.7Z"/><path class="cls-6" d="M2475.34,277.4,2455.91,294l-.33-12.87-29.87,21.48-3.21-14.16-7.71,14.16-5.78-5.19-48.67-1.14,34-12.05v-2.77l12.2-1.14s-17.82-37.46-15.26-67.24c0,0,.33,39.48,24.56,59.49-2.9-2.76-14.27-16.52-12-60.31,0,0-.63,42.56,10.59,53.29-1.41-1.55-4.95-7.4,2.11-23.34,0,0-1.77,7.49,1.92,11.08,0,0,7.23,6,5.46,12.22l.28,2.11,17.71-36.15,1.12,48,21.69-20.83-1.28,18.55Z"/><path class="cls-8" d="M2416.07,264.15c.12.1.22.21.34.32A3.62,3.62,0,0,1,2416.07,264.15Z"/><path class="cls-5" d="M2543.77,257.45s7.95,17.37-8.56,21.12l-6.77-1.19S2543.79,279.9,2543.77,257.45Z"/><path class="cls-9" d="M381.32,255H472s-24.95,15.76-86.63,14.4c0,0-79.64,4.24-97.79.09l-73.21-6.33,48.37-19L381.32,255"/><path class="cls-10" d="M426.71,254.86s12.13-43.4-12.14-72.33a12.56,12.56,0,0,1-4,11.21s4.94-4-10.79-25c0,0-5.39,23.87-12.13,31.1,0,0,5.84-35.08-2.7-69.79,0,0-25.61,19.16-33.25,37.25,0,0-3.15-10.85,4.49-31.83,0,0-33.25,25.8-41.79,50.87,0,0-8.54-1-7.19-18,0,0-42.24,51-44.94,66.55s0-1.81,0-1.81S258.94,248,261,253.05,426.71,254.86,426.71,254.86Z"/><path class="cls-11" d="M290.09,252.32S304,217.61,311.66,206a34.35,34.35,0,0,0,7.19,14.83s.9-27.36,18.88-34.48c0,0-1.8,20.38,6.29,29.42,0,0,9.44-13,16.18-15.55a35.21,35.21,0,0,0,7.19-13.87l3.14-8.56s9,33.28,5,61.85c0,0,19.77-8,22.92-19.89,0,0,7.19,13.38-8.54,34.71C389.86,254.49,308.52,264.62,290.09,252.32Z"/><path class="cls-12" d="M287.15,281.35s4.1,0-5.68,5.69h0l-6,5.15-1.77,3.26h31v-4.34s-12.47-2.44-13.15-1.63c0,0-2.11-6-4.43-6.77"/><path class="cls-13" d="M213.12,177.31s.45,17.11,9.44,19.55l1.13.37-3,4.47,22.64,3.8v-5.43s6.62.43,11.17-1.27c0,0,3.88-3.2,3-5.24,0,0,1.92-.95.12-1.35,0,0,2.34-2.17.77-2.17s-.22-2.85.54-2.85h-.76s8.26,1.36,3.2-5l-4-4.86a3.37,3.37,0,0,0,2.36-2.6s2.69-4.74-.68-6.1a34.48,34.48,0,0,0-32.52-1.49c-17.86,8.41-11.68,4.61-13.43,9.49"/><path class="cls-14" d="M215.05,178.13s-4,14,9.43,19.43,20.78,0,20.78,0,2.13-8.45,0-13.74c0,0-4.65-1.9-3.48-4.34a3.76,3.76,0,0,1,4.43-1.9s11.25-1.22,12.43-5c0,0,4.55-5.42,0-9.76s-7.25-6.1-18.2-5.56-17.53,3.8-17.53,3.8l-2,3.39H214.5s-5.07-11.67-16.36-.54c0,0-7.25,3.66,0,22.24,0,0,4.72,3.12,4.72,8,0,0,3,5.15,2.19,8.54,0,0,.84,4.61-2.19,6.11,0,0,5.73-2.17,7.58-5.57,0,0,2-9.22-.51-14.1,0,0-2-5.83.68-9.22C210.61,179.89,215.43,171.05,215.05,178.13Z"/><path class="cls-15" d="M217.49,181.25h0s-.3-5-1.68-6.28l-4.57-1.54,2.46,11.23,1.66,4.23"/><path class="cls-16" d="M214.5,164.21s.32,9.36-2.54,12.48l.36,1.65s6.82-9.65,5.17-14.13A2.54,2.54,0,0,0,214.5,164.21Z"/><path class="cls-17" d="M217.31,163.55s-1.27,10.8-4.94,14.08l.1,1.94s9.13-10.38,8.1-15.7A2.61,2.61,0,0,0,217.31,163.55Z"/><path class="cls-18" d="M255.13,232.13s1.45,12.25-3.77,23.3c0,0,1.62,9,0,11.09,0,0,3.69-5.1,3.95,9.37l-6,24.23-17.53,7.95-26.65,8.57s-22.78-3.14-25.48-28.09c0,0,3.15-74.51,44-89.7,0,0,9.44,4.71,19.33,3.26,0,0,5.94-.6,8.36,2.77,0,0,8.61,8.28,30.44,12.08l2.09.34c23.37,3.62,25.17,9.6,25.17,9.6s2.69-2.37,6.29,7.4c0,0,3,13.38-8.09,11.21s-3.08-.26-3.08-.26S271.76,239.36,255.13,232.13Z"/><path d="M251.44,241.66s5.65-5,11.29,2.51l6.12,14.27,18.72,24.27-11.66,9.48-28.23-21.6"/><path class="cls-15" d="M249.2,271.49s11.68-24.59,27.86-33.63c0,0,20.67,7.59,26.52,7.23,0,0,8.08,5.06,14.83,34.72,0,0-6.3,8-11.69,9,0,0-12.13-14.46-15.28-25.5s-1.35-1.62-1.35-1.62-4,38.69-28.31,50.63c0,0-3.59,13-40.44,9,0,0-20.22-3.62-25.17-8,0,0,19.33-2.53,27.41-12.29,0,0,.9-8.32,11.24-9.77C234.82,291.38,252.35,284.15,249.2,271.49Z"/><path class="cls-12" d="M305.91,288V299.5h38s3.79-3.53-1.52-5.73c0,0-12.47-2.63-15.84-2.55a34.25,34.25,0,0,0-4.47-3.18s.93-6.44-.75-7.66c0,0-.79-1.79-2.17-1.54S312.91,287.16,305.91,288Z"/><path class="cls-19" d="M467.38,176.27v6.62h17.07V166.15s.14-3-4.65-4.06-12.42,0-12.42,0v14.18"/><path class="cls-18" d="M263.07,229.46s.9,18.82-20.23,11-4-17.55-4-17.55Z"/><path class="cls-20" d="M463.11,162.72v10.85s2.92,3.62,5.39,0V162.72s7.19,2,12.81-.9v-4.16h3.14V155H468.73v2.53l2.92-.18v2.17l-6.74.54.22,2.9Z"/><path d="M480.17,249.43s-7.69-3.07-8.14-13c0,0-1.21-7.77,9.73-9.58A56.11,56.11,0,0,1,504.61,229l32.93,6.33,8.3,1.35,14.95.09,1.12,7.24,8.31,4-60,10.25Z"/><path class="cls-15" d="M548.27,244.19s-47.41-4.52-57.3-1.27c0,0-11.24.36-15.73,6.51,0,0-4.72,6.15,0,12.3,0,0,3.37,3.61,11.69,6.15,0,0,11.23,1.62,15.05,1.62,0,0,28.31,3.8,89.88.91,0,0,16.4-2,15.28-14.65l.05-10.13L569.61,240S553,241.11,548.27,244.19Z"/><path class="cls-13" d="M551.75,171.37v-9.68s-9.35,1.08-10-7.6v-5.42l-6.07-1.36s-1-5,4-5.42c0,0,1.52-2.72,1-3.8,0,0-1.51-4.21-.16-6.38s.33-1.08.33-1.08,10-6.65,23.93-2c0,0,12.64,2.16,11.63,19.8L574.25,150s-1,4.79.51,6.6l2.69,5.07L555,173.16Z"/><path class="cls-13" d="M492,184.37S485,189,485,193.86c0,0-12.48,2.17-20.06-4.74,0,0-2.69-3.39-2.19-4.75,0,0,.51-4.2,3.88-4.2,0,0,12.8,1.89,15.67,0a10.55,10.55,0,0,0,2.7-1.59s2.94.06,3.7,1.76A12.42,12.42,0,0,1,492,184.37Z"/><path class="cls-21" d="M484.45,195.56s1-6.11,7.57-11.67h0s36.25,9.5,40.63,12.35c0,0,6.57-6.85,12-9.53,0,0,3.7-1.27,3.53-10.39,0,0-4.38-1.58-4-5.62s-.51-.58-.51-.58,30.34-10.23,33.88-16.2l1.34,4.48s16.41-2.65,20,11.72A129.88,129.88,0,0,1,607.19,197s3.2,31.58,0,49.91h0a166.72,166.72,0,0,0-43.87-4.15s-8.08-7.31-18.75-5.92h0l-.35-25.56s-8.92,3.26-23.11-3.79Z"/><path class="cls-22" d="M470.8,173.69a4.59,4.59,0,0,1,3.48-2.83s2.21-.39,2.52-.51a32.22,32.22,0,0,0,4.32-1.38s.3-.3,0,.23a18.71,18.71,0,0,0-1.58,4.1,8.63,8.63,0,0,1-.58,2s-.78,2.44-2.81,2.92a4,4,0,0,1-3.59-.15,3.18,3.18,0,0,1-1.9-2.38A3.65,3.65,0,0,1,470.8,173.69Z"/><path class="cls-23" d="M472.73,174.69s1.89-2.05,3.95-2.26c0,0,.39-.21.37-.35s.19-1.35.24-1.4.28-.65,1.36-.53c0,0,.31,0,.38.12s1.53-.9,1.84-.79a3.22,3.22,0,0,0-1.79,1.16,2.46,2.46,0,0,0-.35,1.24,4.13,4.13,0,0,1-.21,1.86,4.81,4.81,0,0,1-1.07,1.46s-.64.44-.8.53a3.71,3.71,0,0,0-.85.91,8.61,8.61,0,0,0-1,1.59s.48-4,1-4.2A5.48,5.48,0,0,1,472.73,174.69Z"/><ellipse class="cls-22" cx="478.2" cy="170.51" rx="0.18" ry="0.16"/><ellipse class="cls-23" cx="478.14" cy="170.48" rx="0.07" ry="0.06"/><path class="cls-15" d="M540.19,132.56s-4.28-6.09,1.78-7.54c0,0,25.17-8.19,30.79,3.77,0,0,4,3.28,4.69,11.24,0,0,1.82,4,.93,6.69l-4.13,3.3s-7.56-1-10.7-6c0,0-.36-8.14-7-2.71v3.25l-1-.09-.4-3.25s-4.94-2.63-5.78-5.38C549.28,135.83,541.09,130.88,540.19,132.56Z"/></g></svg>